<?xml version="1.0" encoding="utf-8"?>
<!-- Generator: Adobe Illustrator 27.1.1, SVG Export Plug-In . SVG Version: 6.00 Build 0)  -->
<svg version="1.1" id="Layer_1" xmlns="http://www.w3.org/2000/svg" xmlns:xlink="http://www.w3.org/1999/xlink" x="0px" y="0px"
	 viewBox="0 0 1080 1080" style="enable-background:new 0 0 1080 1080;" xml:space="preserve">
<style type="text/css">
	.st0{display:none;fill:#E6E6E6;}
	.st1{fill:#1B1E23;}
	.st2{display:none;fill:#1A1D22;}
	.st3{fill:url(#SVGID_1_);}
	.st4{fill:url(#SVGID_00000072960213633170001860000005741271236309566623_);}
	.st5{fill:url(#SVGID_00000147205180246023305480000013923578867171606929_);}
	.st6{fill:url(#SVGID_00000046324192888560535670000011289381219078615701_);}
	.st7{fill:url(#SVGID_00000008830424963994179150000013216643819473598090_);}
	.st8{fill:url(#SVGID_00000086651407410481235550000015361462295538687362_);}
	.st9{fill:url(#SVGID_00000096779699789141578190000013271772138996604038_);}
	.st10{fill:url(#SVGID_00000132803439301083212720000002760953763046020019_);}
	.st11{fill:url(#SVGID_00000047772139361217861330000013202989965222302395_);}
	.st12{fill:url(#SVGID_00000142888317902489795070000002642300927845595023_);}
	.st13{fill:url(#SVGID_00000003068128534207143990000014885148688636031148_);}
	.st14{fill:url(#SVGID_00000175289637095017506670000016519656261299903387_);}
	.st15{fill:url(#SVGID_00000080893014984430420750000016749473686082882948_);}
	.st16{fill:url(#SVGID_00000141453350206166138220000006985906159612503203_);}
	.st17{fill:url(#SVGID_00000017481729733507817590000007957903686648957084_);}
	.st18{fill:url(#SVGID_00000016076478391198503050000003423229539055636609_);}
	.st19{fill:url(#SVGID_00000043456044420722211090000013585558728200739756_);}
	.st20{fill:url(#SVGID_00000132805229799402449510000013331933304015995069_);}
	.st21{fill:url(#SVGID_00000036229775257500199130000018221511560508354966_);}
	.st22{fill:url(#SVGID_00000102546070367380918860000013601310970214943617_);}
	.st23{fill:url(#SVGID_00000049220768468625141350000002326990854352634515_);}
	.st24{fill:url(#SVGID_00000062907699811117339070000012377670297083111566_);}
	.st25{fill:url(#SVGID_00000072964073849689993940000001300903106331685791_);}
	.st26{fill:url(#SVGID_00000057856252693941432720000017441436969244613039_);}
	.st27{opacity:0.57;fill:url(#SVGID_00000181087939005775142280000002013215336484036533_);}
	.st28{opacity:0.57;fill:url(#SVGID_00000062872247502864637890000003602978808058300573_);}
	.st29{opacity:0.57;fill:url(#SVGID_00000026148011344466184440000007989944411568799371_);}
	.st30{opacity:0.57;fill:url(#SVGID_00000176763381674582350060000007837655250427420576_);}
	.st31{opacity:0.57;}
	.st32{opacity:0.49;fill:none;stroke:#000607;stroke-width:57;stroke-miterlimit:10;}
	.st33{fill:url(#SVGID_00000030448063297294907060000006819817466767438001_);}
	.st34{fill:url(#SVGID_00000169532483620687461750000014074056626170289592_);}
	.st35{fill:url(#SVGID_00000157991330800115675100000004108498120418234778_);}
	.st36{fill:url(#SVGID_00000173154771264988828290000007001684650172124334_);}
	.st37{fill:url(#SVGID_00000002346984705005717670000015189680673598890907_);}
	.st38{fill:url(#SVGID_00000036244727011053382030000018315809979530408852_);}
	.st39{fill:url(#SVGID_00000045609788556717161060000013317010873490563488_);}
	.st40{fill:url(#SVGID_00000087404404922614759210000009213434383230918335_);}
	.st41{fill:url(#SVGID_00000121273697433100263670000007503447227933417613_);}
	.st42{fill:url(#SVGID_00000029012753701626679080000006456667573415548567_);}
	.st43{fill:url(#SVGID_00000156557159885673402040000010749693795826739622_);}
	.st44{fill:url(#SVGID_00000089551662044840652550000002709028959579618999_);}
	.st45{opacity:0.57;fill:url(#SVGID_00000136407222688467741540000011276632042429560229_);}
	.st46{opacity:0.57;fill:url(#SVGID_00000034802644022075347210000003683114172991266989_);}
	.st47{opacity:0.57;fill:url(#SVGID_00000018212072268972251570000001884986846128116413_);}
	.st48{opacity:0.57;fill:url(#SVGID_00000025413757767002300230000012321596303056682374_);}
	.st49{fill:url(#SVGID_00000038389712707026389440000004236976139093127319_);}
	.st50{fill:url(#SVGID_00000143582506716466680000000002105422158507797951_);}
	.st51{fill:url(#SVGID_00000167374064044201512590000007758841856151582886_);}
	.st52{fill:url(#SVGID_00000145039445656782831550000008952309589127433605_);}
	.st53{fill:url(#SVGID_00000045600048722479779490000010811105175268791217_);}
	.st54{fill:url(#SVGID_00000132046657333790627560000013698493058800776890_);}
	.st55{fill:url(#SVGID_00000132774930536245069860000017085038598599428029_);}
	.st56{fill:url(#SVGID_00000067210782723352165560000007099319115593705627_);}
	.st57{fill:url(#SVGID_00000170987060764154544150000008625227325213245605_);}
	.st58{fill:url(#SVGID_00000165934475380543541470000006170700707442379423_);}
	.st59{fill:url(#SVGID_00000054959336243558416440000018342619238830729143_);}
	.st60{fill:url(#SVGID_00000160911101888086000240000003580886259509895081_);}
	.st61{opacity:0.57;fill:url(#SVGID_00000041986092655192048340000012455687677750179751_);}
	.st62{opacity:0.57;fill:url(#SVGID_00000065796906433314582240000016438614976690354833_);}
	.st63{opacity:0.57;fill:url(#SVGID_00000062893009051844617560000008767592824537065114_);}
	.st64{opacity:0.57;fill:url(#SVGID_00000052089381352546448340000007781812281945691035_);}
	.st65{fill:url(#SVGID_00000028283642096203324960000017135297708940559531_);}
	.st66{fill:url(#SVGID_00000163790984396787788540000003113738509277312387_);}
	.st67{fill:url(#SVGID_00000081641624896445579590000013562156045431726006_);}
	.st68{fill:url(#SVGID_00000005260387773869782530000001922430226405489317_);}
	.st69{fill:url(#SVGID_00000123438494160726072110000004994487302544258966_);}
	.st70{fill:url(#SVGID_00000116229609987911395010000005055023087045681308_);}
	.st71{fill:url(#SVGID_00000110472813584764230860000004721877657247973269_);}
	.st72{fill:url(#SVGID_00000132071474979648654320000008678338143808051851_);}
	.st73{fill:url(#SVGID_00000016072207137591609500000006717611970343421603_);}
	.st74{fill:url(#SVGID_00000041990425450894433400000006974984151274468269_);}
	.st75{fill:url(#SVGID_00000028319345966201689270000005493733683124360328_);}
	.st76{fill:url(#SVGID_00000173877931990876285250000003854910796319282822_);}
	.st77{fill:url(#SVGID_00000137126689483147143060000005186196131152719543_);}
	.st78{fill:url(#SVGID_00000170963388310831437810000017167438432877515438_);}
	.st79{fill:url(#SVGID_00000008859072183982456080000010284244048104824505_);}
	.st80{fill:#2EA901;}
	.st81{fill:url(#SVGID_00000037655918302311660580000008833387381026315159_);}
	.st82{fill:url(#SVGID_00000142886220422476989290000007379870950179578806_);}
	.st83{fill:url(#SVGID_00000003080645357647095080000016572021988939022736_);}
	.st84{fill:url(#SVGID_00000119104976022358006040000017741166108836716937_);}
	.st85{fill:url(#SVGID_00000018939020593857581630000014356461718133129602_);}
	.st86{fill:url(#SVGID_00000017512322661367942880000003751069413122296486_);}
	.st87{fill:url(#SVGID_00000142889616397489655270000010136448659836639876_);}
	.st88{fill:url(#SVGID_00000011007207034202770390000017446756202651849914_);}
	.st89{fill:url(#SVGID_00000052082987853516767010000004097005473763030405_);}
	.st90{fill:url(#SVGID_00000160905501012955549140000005997635877256546457_);}
	.st91{fill:url(#SVGID_00000171688178001467197570000018066559130485825932_);}
	.st92{fill:url(#SVGID_00000096056227172428306200000003401583969002143129_);}
	.st93{fill:url(#SVGID_00000021111289531634674890000010282616960673657761_);}
	.st94{fill:url(#SVGID_00000127756689805975945310000007666043959696786340_);}
	.st95{fill:url(#SVGID_00000053509089935529871520000003707152332411220361_);}
	.st96{fill:url(#SVGID_00000107558202302172039520000007987146389437851540_);}
	.st97{fill:url(#SVGID_00000150811860678955128560000006831272217464763807_);}
	.st98{fill:url(#SVGID_00000043458121431435212770000002746727684178779561_);}
	.st99{fill:url(#SVGID_00000085232249694769519670000003839283045910773385_);}
	.st100{fill:url(#SVGID_00000013180170727369451110000018404761532372905916_);}
	.st101{fill:url(#SVGID_00000057844098271453299170000004020279734537215634_);}
	.st102{opacity:0.49;}
	.st103{fill:#000607;}
	.st104{fill:url(#SVGID_00000021116244167967490710000015881902138329879700_);}
	.st105{fill:url(#SVGID_00000106132940783388458610000011099286609988760704_);}
	.st106{fill:url(#SVGID_00000158714358351668209470000003242504786796531110_);}
	.st107{fill:url(#SVGID_00000077294830487550429000000010006646957751188150_);}
	.st108{fill:url(#SVGID_00000032620503177531472870000004230570135041644953_);}
	.st109{fill:url(#SVGID_00000139998687451707883740000014128215956649979553_);}
	.st110{opacity:0.57;fill:#000607;}
	.st111{fill:url(#SVGID_00000138575693793376034800000012540994430690283678_);}
	.st112{fill:url(#SVGID_00000048499844364691537640000009458793403296505773_);}
	.st113{fill:url(#SVGID_00000013168824187625797430000017651516823423681726_);}
	.st114{fill:url(#SVGID_00000001652379863775352910000014258689944400268700_);}
	.st115{fill:url(#SVGID_00000164487916295846568170000002468427723763415687_);}
	.st116{fill:url(#SVGID_00000111186848846514446280000010329305713785986473_);}
	.st117{fill:url(#SVGID_00000011752558571195515070000010812199061975811712_);}
	.st118{fill:url(#SVGID_00000007418624524115595930000001399203233471045050_);}
	.st119{opacity:0.57;fill:url(#SVGID_00000052807139249784606040000011503491218921876360_);}
	.st120{opacity:0.57;fill:url(#SVGID_00000087383017778352388490000000159274579672510870_);}
	.st121{opacity:0.57;fill:url(#SVGID_00000001640519524879120280000013199443406636348587_);}
	.st122{fill:url(#SVGID_00000100357086959672762310000010946743305351808432_);}
	.st123{fill:url(#SVGID_00000137125830142536582440000004473171422570966446_);}
	.st124{fill:#2AA9E0;}
	.st125{fill:#009AFF;}
	.st126{fill:url(#SVGID_00000106860006003853983760000007981048701815979941_);}
	.st127{fill:url(#SVGID_00000022525859673869536870000006865443865206008239_);}
	.st128{fill:url(#SVGID_00000151512257301186645570000006852031385591151795_);}
	.st129{fill:url(#SVGID_00000055670923918552458940000004241461975922543290_);}
	.st130{fill:url(#SVGID_00000181797220665571135280000006254221352208547725_);}
	.st131{fill:url(#SVGID_00000062892749865414104080000006540274552436225941_);}
	.st132{fill:url(#SVGID_00000181785200607511345050000015176170522986390709_);}
	.st133{fill:url(#SVGID_00000054258515042397061500000007683124403677471626_);}
	.st134{fill:url(#SVGID_00000101822576968258976870000006287160305752780427_);}
	.st135{fill:url(#SVGID_00000034052933121842391730000014353365129859227564_);}
	.st136{fill:url(#SVGID_00000117647989419516545030000018439391512810082982_);}
	.st137{fill:url(#SVGID_00000101797374786653667880000010355668254099497094_);}
	.st138{fill:url(#SVGID_00000052800895552546243600000004585304616237198765_);}
	.st139{fill:url(#SVGID_00000164490706346703433570000014750466218581407646_);}
	.st140{fill:url(#SVGID_00000183958331775031942900000002397498781877967773_);}
	.st141{fill:url(#SVGID_00000088835804879925537600000010603605683591596184_);}
	.st142{fill:url(#SVGID_00000160171883724475078980000013973615519797178046_);}
	.st143{fill:url(#SVGID_00000148648422128434717610000010790212527866553491_);}
	.st144{fill:url(#SVGID_00000080899355726704548710000016065714872254493346_);}
	.st145{fill:url(#SVGID_00000083080563853354391550000018375019077772643720_);}
	.st146{fill:url(#SVGID_00000160882385781479245680000016359948767162780059_);}
	.st147{fill:url(#SVGID_00000054988895445121565090000001972476662644876677_);}
	.st148{fill:url(#SVGID_00000145779435906543659510000016303594809971981479_);}
	.st149{fill:url(#SVGID_00000049212476404486120250000007301393810508267652_);}
	.st150{fill:url(#SVGID_00000088124175730928436210000009515634833215076019_);}
	.st151{fill:none;stroke:#F2F2F2;stroke-miterlimit:10;}
</style>
<rect x="-41.2" y="-28.3" class="st2" width="1147.7" height="1147.7"/>
<circle class="st2" cx="540" cy="540" r="536.1"/>
<g>
	<g>
		<path class="st80" d="M595.2,377.3c-10.5,13.6-31.2,22.8-55.2,22.8c-23.9,0-44.7-9.2-55.2-22.8c2.9-15.4,15.3-28.3,32.2-34.5
			c5,6.7,13.4,11,22.9,11c9.5,0,17.9-4.4,22.9-11C579.8,349,592.2,361.9,595.2,377.3z"/>
		<circle class="st80" cx="540" cy="318.9" r="25.4"/>
	</g>
	<path class="st80" d="M706.8,399.7L540,496l-166.8-96.3c-12.2-7-16.4-22.6-9.3-34.8c4.7-8.2,13.3-12.7,22.1-12.7
		c4.3,0,8.7,1.1,12.7,3.4L540,437.2l141.3-81.6c4-2.3,8.4-3.4,12.7-3.4c8.8,0,17.4,4.6,22.1,12.7C723.1,377.1,719,392.7,706.8,399.7
		z"/>
	<path class="st80" d="M489.2,584v192.6c0,14.1-11.4,25.5-25.5,25.5c-7,0-13.4-2.9-18-7.5c-4.6-4.6-7.5-11-7.5-18V613.4L297,531.8
		c-8.2-4.7-12.7-13.3-12.7-22.1c0-4.3,1.1-8.7,3.4-12.7c7-12.2,22.6-16.4,34.8-9.3L489.2,584z"/>
	<path class="st80" d="M795.8,509.7c0,8.8-4.6,17.4-12.7,22.1l-141.3,81.6v163.2c0,7-2.9,13.4-7.5,18c-4.6,4.6-11,7.5-18,7.5
		c-14.1,0-25.5-11.4-25.5-25.5V584l166.8-96.3c12.2-7,27.8-2.9,34.8,9.3C794.7,501,795.8,505.4,795.8,509.7z"/>
	<g>
		<path class="st80" d="M666,691.1c-6.5-15.8-4.1-38.4,7.8-59.2c12-20.7,30.3-34.1,47.3-36.4c11.9,10.2,16.9,27.4,13.8,45.2
			c-8.3,1-16.3,6.1-21,14.3c-4.8,8.2-5.2,17.7-1.9,25.4C698.2,692,680.8,696.3,666,691.1z"/>
		<circle class="st80" cx="744.2" cy="672.5" r="25.4"/>
	</g>
	<g>
		<path class="st80" d="M358.8,595.6c17,2.3,35.4,15.7,47.3,36.4c12,20.7,14.4,43.3,7.8,59.2c-14.8,5.2-32.2,0.9-46-10.7
			c3.3-7.7,2.9-17.1-1.9-25.4c-4.8-8.2-12.8-13.3-21-14.3C342,623,346.9,605.8,358.8,595.6z"/>
		<circle class="st80" cx="335.8" cy="672.5" r="25.4"/>
	</g>
	<path class="st80" d="M540,600.2L540,600.2c-14.1,0-25.5,11.4-25.5,25.5l0,263.5c0,14.1,11.4,25.5,25.5,25.5h0
		c14.1,0,25.5-11.4,25.5-25.5V625.7C565.5,611.6,554.1,600.2,540,600.2z"/>
	<polygon class="st80" points="396.9,802.5 253.8,719.9 253.8,448.1 253.8,448.1 202.8,418.6 202.8,749.3 489.2,914.7 489.2,855.8 	
		"/>
	<polygon class="st80" points="826.2,448.1 826.2,719.9 826.2,719.9 590.8,855.8 590.8,914.7 877.2,749.3 877.2,418.6 	"/>
	<polygon class="st80" points="540,165.3 253.6,330.7 304.6,360.1 540,224.2 775.4,360.1 826.4,330.7 	"/>
	<path class="st80" d="M500.6,531.9L500.6,531.9c7-12.2,2.9-27.8-9.3-34.8L263,365.3c-12.2-7-27.8-2.9-34.8,9.3l0,0
		c-7,12.2-2.9,27.8,9.3,34.8l228.2,131.8C477.9,548.2,493.5,544.1,500.6,531.9z"/>
	<path class="st80" d="M579.4,531.9L579.4,531.9c7,12.2,22.6,16.4,34.8,9.3l228.2-131.8c12.2-7,16.4-22.6,9.3-34.8l0,0
		c-7-12.2-22.6-16.4-34.8-9.3L588.8,497.1C576.6,504.1,572.4,519.7,579.4,531.9z"/>
</g>
</svg>
