<?xml version="1.0" encoding="utf-8"?>
<!-- Generator: Adobe Illustrator 27.1.1, SVG Export Plug-In . SVG Version: 6.00 Build 0)  -->
<svg version="1.1" id="Layer_1" xmlns="http://www.w3.org/2000/svg" xmlns:xlink="http://www.w3.org/1999/xlink" x="0px" y="0px"
	 viewBox="0 0 500 500" style="enable-background:new 0 0 500 500;" xml:space="preserve">
<style type="text/css">
	.st0{fill:#F2F2F2;}
	.st1{fill:#FFFFFF;}
	.st2{fill:url(#SVGID_1_);}
	.st3{fill:url(#SVGID_00000140004570638712100560000007588579455253098146_);}
	.st4{fill:url(#SVGID_00000107582618810088673710000006928493481846310328_);}
	.st5{fill:url(#SVGID_00000034785367840127970060000015934777240259355282_);}
	.st6{fill:url(#SVGID_00000088853779198275946850000002843960374847869340_);}
	.st7{fill:url(#SVGID_00000020395819083732029470000009311859151728955782_);}
	.st8{fill:url(#SVGID_00000159441990842387749110000017568740274019938437_);}
	.st9{fill:url(#SVGID_00000050662593579859113090000013538782967346814631_);}
	.st10{fill:url(#SVGID_00000115488357072628136580000006771866962435266973_);}
	.st11{fill:url(#SVGID_00000095304303496882517580000004898540958493258400_);}
	.st12{fill:url(#SVGID_00000018211015948491968010000016905089927237909669_);}
	.st13{fill:url(#SVGID_00000172400837531429242460000003541342635352004028_);}
</style>
<g>
	<circle class="st0" cx="250" cy="250" r="248.6"/>
</g>
<rect x="729.16" y="19.47" class="st1" width="500" height="500"/>
<g>
	<g>
		<linearGradient id="SVGID_1_" gradientUnits="userSpaceOnUse" x1="250" y1="221.445" x2="250" y2="48.4211">
			<stop  offset="0" style="stop-color:#39DDCC"/>
			<stop  offset="0.1068" style="stop-color:#38D7CD"/>
			<stop  offset="0.2442" style="stop-color:#35C7D1"/>
			<stop  offset="0.3985" style="stop-color:#30ADD7"/>
			<stop  offset="0.565" style="stop-color:#2A88DF"/>
			<stop  offset="0.7415" style="stop-color:#2158E9"/>
			<stop  offset="0.9235" style="stop-color:#171FF6"/>
			<stop  offset="1" style="stop-color:#1205FC"/>
		</linearGradient>
		<path class="st2" d="M263.03,61.46v146.95c0,7.2-5.84,13.03-13.03,13.03h0c-7.2,0-13.03-5.84-13.03-13.03V61.46
			c0-7.2,5.84-13.03,13.03-13.03h0C257.2,48.42,263.03,54.26,263.03,61.46z"/>
	</g>
	<g>
		
			<linearGradient id="SVGID_00000034082234410073900390000007599238700604026557_" gradientUnits="userSpaceOnUse" x1="132.9179" y1="181.1824" x2="246.6013" y2="228.1098">
			<stop  offset="0.3664" style="stop-color:#00FFFF"/>
			<stop  offset="0.4283" style="stop-color:#00F9FF"/>
			<stop  offset="0.5079" style="stop-color:#02E9FF"/>
			<stop  offset="0.5973" style="stop-color:#03CFFE"/>
			<stop  offset="0.6939" style="stop-color:#06AAFE"/>
			<stop  offset="0.7962" style="stop-color:#0A7AFD"/>
			<stop  offset="0.9015" style="stop-color:#0E41FD"/>
			<stop  offset="1" style="stop-color:#1205FC"/>
		</linearGradient>
		<path style="fill:url(#SVGID_00000034082234410073900390000007599238700604026557_);" d="M219.69,232.37
			c1.46-1.92,2.32-4.26,2.32-6.78V91.32c0-6.58-5.84-11.91-13.03-11.91h0c-7.2,0-13.03,5.33-13.03,11.91V217.2L92.1,277.05
			c-5.45,3.14-6.95,10.74-3.35,16.98v0c3.59,6.24,10.92,8.75,16.37,5.61l111.2-64.09C217.71,234.75,218.83,233.65,219.69,232.37z"/>
		
			<linearGradient id="SVGID_00000029756460185505686340000017788344026330761128_" gradientUnits="userSpaceOnUse" x1="352.7825" y1="184.8024" x2="252.8546" y2="255.5847">
			<stop  offset="0" style="stop-color:#00FFFF"/>
			<stop  offset="0.0976" style="stop-color:#00F9FF"/>
			<stop  offset="0.2233" style="stop-color:#02E9FF"/>
			<stop  offset="0.3644" style="stop-color:#03CFFE"/>
			<stop  offset="0.5168" style="stop-color:#06AAFE"/>
			<stop  offset="0.6782" style="stop-color:#0A7AFD"/>
			<stop  offset="0.8445" style="stop-color:#0E41FD"/>
			<stop  offset="1" style="stop-color:#1205FC"/>
		</linearGradient>
		<path style="fill:url(#SVGID_00000029756460185505686340000017788344026330761128_);" d="M407.9,277.05L304.06,217.2V91.32
			c0-6.58-5.84-11.91-13.03-11.91h0c-7.2,0-13.03,5.33-13.03,11.91V225.6c0,2.52,0.86,4.85,2.32,6.78c0.86,1.28,1.98,2.37,3.37,3.17
			l111.2,64.09c5.45,3.14,12.78,0.63,16.37-5.61v0C414.85,287.79,413.35,280.19,407.9,277.05z"/>
	</g>
	<g>
		
			<linearGradient id="SVGID_00000034062413178704117380000005036437933009338281_" gradientUnits="userSpaceOnUse" x1="250" y1="371.9512" x2="250" y2="323.7007">
			<stop  offset="0.3057" style="stop-color:#00FFFF"/>
			<stop  offset="0.3735" style="stop-color:#00F9FF"/>
			<stop  offset="0.4608" style="stop-color:#02E9FF"/>
			<stop  offset="0.5587" style="stop-color:#03CFFE"/>
			<stop  offset="0.6645" style="stop-color:#06AAFE"/>
			<stop  offset="0.7766" style="stop-color:#0A7AFD"/>
			<stop  offset="0.8921" style="stop-color:#0E41FD"/>
			<stop  offset="1" style="stop-color:#1205FC"/>
		</linearGradient>
		<path style="fill:url(#SVGID_00000034062413178704117380000005036437933009338281_);" d="M273.19,336.41
			c-4.4-5.7-13.13-9.58-23.19-9.58c-10.06,0-18.79,3.88-23.19,9.58c1.23,6.49,6.45,11.92,13.56,14.52c2.1-2.8,5.64-4.64,9.64-4.64
			c4,0,7.54,1.84,9.64,4.64C266.75,348.33,271.97,342.91,273.19,336.41z"/>
		
			<linearGradient id="SVGID_00000084530897160296914080000010333563335723387272_" gradientUnits="userSpaceOnUse" x1="250" y1="372.718" x2="250" y2="324.4674">
			<stop  offset="0" style="stop-color:#00FFFF"/>
			<stop  offset="0.0976" style="stop-color:#00F9FF"/>
			<stop  offset="0.2233" style="stop-color:#02E9FF"/>
			<stop  offset="0.3644" style="stop-color:#03CFFE"/>
			<stop  offset="0.5168" style="stop-color:#06AAFE"/>
			<stop  offset="0.6782" style="stop-color:#0A7AFD"/>
			<stop  offset="0.8445" style="stop-color:#0E41FD"/>
			<stop  offset="1" style="stop-color:#1205FC"/>
		</linearGradient>
		<circle style="fill:url(#SVGID_00000084530897160296914080000010333563335723387272_);" cx="250" cy="360.97" r="10.68"/>
	</g>
	<g>
		<g>
			
				<linearGradient id="SVGID_00000112610728901814115000000005667383283138437251_" gradientUnits="userSpaceOnUse" x1="-1751.0625" y1="-955.6863" x2="-1751.0625" y2="-1003.9368" gradientTransform="matrix(-0.5248 -0.8512 0.8512 -0.5248 252.7 -1806.8977)">
				<stop  offset="0.3057" style="stop-color:#00FFFF"/>
				<stop  offset="0.3735" style="stop-color:#00F9FF"/>
				<stop  offset="0.4608" style="stop-color:#02E9FF"/>
				<stop  offset="0.5587" style="stop-color:#03CFFE"/>
				<stop  offset="0.6645" style="stop-color:#06AAFE"/>
				<stop  offset="0.7766" style="stop-color:#0A7AFD"/>
				<stop  offset="0.8921" style="stop-color:#0E41FD"/>
				<stop  offset="1" style="stop-color:#1205FC"/>
			</linearGradient>
			<path style="fill:url(#SVGID_00000112610728901814115000000005667383283138437251_);" d="M315.81,184.1
				c-2.55,6.74-1.26,16.21,4.01,24.77c5.28,8.56,13.17,13.96,20.33,14.71c4.88-4.45,6.76-11.74,5.25-19.16
				c-3.48-0.32-6.91-2.36-9.01-5.77c-2.1-3.41-2.39-7.38-1.11-10.64C329.34,183.34,321.98,181.74,315.81,184.1z"/>
			
				<linearGradient id="SVGID_00000020386484861483780850000010680865135219930803_" gradientUnits="userSpaceOnUse" x1="-1751.0625" y1="-954.9196" x2="-1751.0625" y2="-1003.1701" gradientTransform="matrix(-0.5248 -0.8512 0.8512 -0.5248 252.7 -1806.8977)">
				<stop  offset="0" style="stop-color:#00FFFF"/>
				<stop  offset="0.0976" style="stop-color:#00F9FF"/>
				<stop  offset="0.2233" style="stop-color:#02E9FF"/>
				<stop  offset="0.3644" style="stop-color:#03CFFE"/>
				<stop  offset="0.5168" style="stop-color:#06AAFE"/>
				<stop  offset="0.6782" style="stop-color:#0A7AFD"/>
				<stop  offset="0.8445" style="stop-color:#0E41FD"/>
				<stop  offset="1" style="stop-color:#1205FC"/>
			</linearGradient>
			<circle style="fill:url(#SVGID_00000020386484861483780850000010680865135219930803_);" cx="348.89" cy="190.95" r="10.68"/>
		</g>
		<g>
			
				<linearGradient id="SVGID_00000002369127367099082090000006759651665705717386_" gradientUnits="userSpaceOnUse" x1="-1039.6409" y1="-2109.5085" x2="-1039.6409" y2="-2157.759" gradientTransform="matrix(0.5248 -0.8512 -0.8512 -0.5248 -1108.217 -1806.8977)">
				<stop  offset="0.3057" style="stop-color:#00FFFF"/>
				<stop  offset="0.3735" style="stop-color:#00F9FF"/>
				<stop  offset="0.4608" style="stop-color:#02E9FF"/>
				<stop  offset="0.5587" style="stop-color:#03CFFE"/>
				<stop  offset="0.6645" style="stop-color:#06AAFE"/>
				<stop  offset="0.7766" style="stop-color:#0A7AFD"/>
				<stop  offset="0.8921" style="stop-color:#0E41FD"/>
				<stop  offset="1" style="stop-color:#1205FC"/>
			</linearGradient>
			<path style="fill:url(#SVGID_00000002369127367099082090000006759651665705717386_);" d="M184.19,184.1
				c2.55,6.74,1.26,16.21-4.01,24.77s-13.17,13.96-20.33,14.71c-4.88-4.45-6.76-11.74-5.25-19.16c3.48-0.32,6.91-2.36,9.01-5.77
				c2.1-3.41,2.39-7.38,1.11-10.64C170.66,183.34,178.02,181.74,184.19,184.1z"/>
			
				<linearGradient id="SVGID_00000155121803804457041090000001939820050251469197_" gradientUnits="userSpaceOnUse" x1="-1039.6409" y1="-2108.7417" x2="-1039.6409" y2="-2156.9922" gradientTransform="matrix(0.5248 -0.8512 -0.8512 -0.5248 -1108.217 -1806.8977)">
				<stop  offset="0" style="stop-color:#00FFFF"/>
				<stop  offset="0.0976" style="stop-color:#00F9FF"/>
				<stop  offset="0.2233" style="stop-color:#02E9FF"/>
				<stop  offset="0.3644" style="stop-color:#03CFFE"/>
				<stop  offset="0.5168" style="stop-color:#06AAFE"/>
				<stop  offset="0.6782" style="stop-color:#0A7AFD"/>
				<stop  offset="0.8445" style="stop-color:#0E41FD"/>
				<stop  offset="1" style="stop-color:#1205FC"/>
			</linearGradient>
			<circle style="fill:url(#SVGID_00000155121803804457041090000001939820050251469197_);" cx="151.11" cy="190.95" r="10.68"/>
		</g>
	</g>
	<g>
		<g>
			
				<linearGradient id="SVGID_00000110447015856751005930000005457324915593220232_" gradientUnits="userSpaceOnUse" x1="75.8907" y1="303.1064" x2="229.2872" y2="303.1064">
				<stop  offset="0" style="stop-color:#1205FC"/>
				<stop  offset="0.0765" style="stop-color:#171FF6"/>
				<stop  offset="0.2585" style="stop-color:#2158E9"/>
				<stop  offset="0.435" style="stop-color:#2A88DF"/>
				<stop  offset="0.6015" style="stop-color:#30ADD7"/>
				<stop  offset="0.7558" style="stop-color:#35C7D1"/>
				<stop  offset="0.8932" style="stop-color:#38D7CD"/>
				<stop  offset="1" style="stop-color:#39DDCC"/>
			</linearGradient>
			<path style="fill:url(#SVGID_00000110447015856751005930000005457324915593220232_);" d="M209.74,255.12L82.42,328.5
				c-6.24,3.59-8.38,11.56-4.78,17.8l0,0c3.59,6.24,11.56,8.38,17.8,4.78l127.32-73.38c6.24-3.59,8.38-11.56,4.78-17.8l0,0
				C223.95,253.67,215.98,251.53,209.74,255.12z"/>
		</g>
		<g>
			
				<linearGradient id="SVGID_00000178194064243283598730000010810516466632697998_" gradientUnits="userSpaceOnUse" x1="271.8651" y1="258.4539" x2="422.2721" y2="347.3542">
				<stop  offset="0" style="stop-color:#39DDCC"/>
				<stop  offset="0.1068" style="stop-color:#38D7CD"/>
				<stop  offset="0.2442" style="stop-color:#35C7D1"/>
				<stop  offset="0.3985" style="stop-color:#30ADD7"/>
				<stop  offset="0.565" style="stop-color:#2A88DF"/>
				<stop  offset="0.7415" style="stop-color:#2158E9"/>
				<stop  offset="0.9235" style="stop-color:#171FF6"/>
				<stop  offset="1" style="stop-color:#1205FC"/>
			</linearGradient>
			<path style="fill:url(#SVGID_00000178194064243283598730000010810516466632697998_);" d="M290.26,255.12l127.32,73.38
				c6.24,3.59,8.38,11.56,4.78,17.8v0c-3.59,6.24-11.56,8.38-17.8,4.78l-127.32-73.38c-6.24-3.59-8.38-11.56-4.78-17.8l0,0
				C276.05,253.67,284.02,251.53,290.26,255.12z"/>
		</g>
	</g>
	
		<linearGradient id="SVGID_00000146487921473143538450000012827917117338194593_" gradientUnits="userSpaceOnUse" x1="249.7337" y1="385.2817" x2="251.0464" y2="259.9123">
		<stop  offset="0.3664" style="stop-color:#00FFFF"/>
		<stop  offset="0.4283" style="stop-color:#00F9FF"/>
		<stop  offset="0.5079" style="stop-color:#02E9FF"/>
		<stop  offset="0.5973" style="stop-color:#03CFFE"/>
		<stop  offset="0.6939" style="stop-color:#06AAFE"/>
		<stop  offset="0.7962" style="stop-color:#0A7AFD"/>
		<stop  offset="0.9015" style="stop-color:#0E41FD"/>
		<stop  offset="1" style="stop-color:#1205FC"/>
	</linearGradient>
	<path style="fill:url(#SVGID_00000146487921473143538450000012827917117338194593_);" d="M372.87,349.5l-117.04-67.45
		c-2.17-1.25-4.61-1.69-6.99-1.4c-1.67,0.11-3.31,0.58-4.83,1.45l-116.89,67.36c-5.73,3.3-7.45,11.03-3.86,17.27
		c3.59,6.24,11.15,8.62,16.88,5.32l109.82-63.29l109.89,63.34c5.73,3.3,13.3,0.93,16.89-5.31h0
		C380.33,360.54,378.6,352.81,372.87,349.5z"/>
</g>
</svg>
