<?xml version="1.0" encoding="utf-8"?>
<!-- Generator: Adobe Illustrator 27.1.1, SVG Export Plug-In . SVG Version: 6.00 Build 0)  -->
<svg version="1.1" id="Layer_1" xmlns="http://www.w3.org/2000/svg" xmlns:xlink="http://www.w3.org/1999/xlink" x="0px" y="0px"
	 viewBox="0 0 1080 1080" style="enable-background:new 0 0 1080 1080;" xml:space="preserve">
<style type="text/css">
	.st0{opacity:0.57;}
	.st1{opacity:0.49;}
	.st2{fill:#000607;}
	.st3{opacity:0.57;fill:#000607;}
	.st4{fill:url(#SVGID_1_);}
	.st5{fill:url(#SVGID_00000160909708498944156220000010425324516570103743_);}
	.st6{fill:url(#SVGID_00000029030361038010714660000009612908475384363410_);}
	.st7{fill:url(#SVGID_00000183212899584365231910000010653505300715377068_);}
	.st8{fill:url(#SVGID_00000011743853371287561510000009162804744877609356_);}
	.st9{fill:url(#SVGID_00000111192198503829925140000018286844084336742031_);}
	.st10{fill:url(#SVGID_00000143616411614598597240000000713195706605681559_);}
	.st11{fill:url(#SVGID_00000163030406283508698810000016765104760152695699_);}
	.st12{fill:url(#SVGID_00000165203815249896122860000018329628961093736070_);}
	.st13{fill:url(#SVGID_00000008145033783821768560000011829229632168167071_);}
	.st14{fill:url(#SVGID_00000119115364235261546070000017691243498013516987_);}
	.st15{fill:url(#SVGID_00000054236298797613563600000018156496492036306573_);}
	.st16{fill:url(#SVGID_00000039092888075336903370000018094418751446302357_);}
	.st17{fill:url(#SVGID_00000166634275674956833830000018212781440864024205_);}
	.st18{fill:url(#SVGID_00000137096994904178895680000004125529513920320640_);}
	.st19{fill:url(#SVGID_00000093163171318102458430000013910239734822934426_);}
	.st20{fill:url(#SVGID_00000038409661597020560130000004258913177105777595_);}
	.st21{fill:url(#SVGID_00000020371124822407974030000004348114887815629457_);}
	.st22{fill:url(#SVGID_00000018220210969318138950000012462226135711122566_);}
	.st23{fill:url(#SVGID_00000034807852416531080530000005637741884536577158_);}
	.st24{fill:url(#SVGID_00000068677321934517865100000008949490173348202119_);}
	.st25{fill:url(#SVGID_00000156581092944206729140000000931519550294310272_);}
	.st26{fill:url(#SVGID_00000167395197248840187720000002331365690789532054_);}
	.st27{fill:url(#SVGID_00000105419946688359508670000017895204061443040956_);}
	.st28{fill:url(#SVGID_00000127727315692063350310000017673897156694556820_);}
	.st29{fill:url(#SVGID_00000042724858427919366230000013869186211357880224_);}
	.st30{fill:url(#SVGID_00000150801695064429210850000009000461410797204102_);}
	.st31{fill:url(#SVGID_00000013161357008049966250000014212566796120979365_);}
	.st32{fill:url(#SVGID_00000018195192431908201050000011631071957857594549_);}
	.st33{fill:url(#SVGID_00000181047963947791289480000000059293376837364925_);}
</style>
<g>
	<g>
		<linearGradient id="SVGID_1_" gradientUnits="userSpaceOnUse" x1="540.0024" y1="249.6615" x2="540.0024" y2="404.5761">
			<stop  offset="0" style="stop-color:#00FFFF"/>
			<stop  offset="0.1677" style="stop-color:#00F6FF"/>
			<stop  offset="0.4413" style="stop-color:#00DEFF"/>
			<stop  offset="0.7844" style="stop-color:#00B6FF"/>
			<stop  offset="1" style="stop-color:#009AFF"/>
		</linearGradient>
		<path class="st4" d="M601.6,341.8c-11.7,15.2-34.9,25.5-61.6,25.5s-49.9-10.3-61.6-25.5c3.3-17.3,17.1-31.7,36-38.6
			c5.6,7.4,15,12.3,25.6,12.3c10.6,0,20-4.9,25.6-12.3C584.5,310.1,598.4,324.5,601.6,341.8z"/>
		
			<linearGradient id="SVGID_00000003799486379655383730000013365680516860559488_" gradientUnits="userSpaceOnUse" x1="540.0024" y1="249.6615" x2="540.0024" y2="409.2832">
			<stop  offset="0" style="stop-color:#00FFFF"/>
			<stop  offset="0.1677" style="stop-color:#00F6FF"/>
			<stop  offset="0.4413" style="stop-color:#00DEFF"/>
			<stop  offset="0.7844" style="stop-color:#00B6FF"/>
			<stop  offset="1" style="stop-color:#009AFF"/>
		</linearGradient>
		<circle style="fill:url(#SVGID_00000003799486379655383730000013365680516860559488_);" cx="540" cy="276.5" r="28.4"/>
	</g>
	
		<linearGradient id="SVGID_00000018928863778709980770000001325007903977086350_" gradientUnits="userSpaceOnUse" x1="538.9849" y1="592.5081" x2="540.3662" y2="252.6984">
		<stop  offset="0" style="stop-color:#1205FC"/>
		<stop  offset="0.1555" style="stop-color:#0E41FD"/>
		<stop  offset="0.3218" style="stop-color:#0A7AFD"/>
		<stop  offset="0.4832" style="stop-color:#06AAFE"/>
		<stop  offset="0.6356" style="stop-color:#03CFFE"/>
		<stop  offset="0.7767" style="stop-color:#02E9FF"/>
		<stop  offset="0.9024" style="stop-color:#00F9FF"/>
		<stop  offset="1" style="stop-color:#00FFFF"/>
	</linearGradient>
	<path style="fill:url(#SVGID_00000018928863778709980770000001325007903977086350_);" d="M726.4,366.9L540,474.5L353.6,366.9
		c-13.6-7.9-18.3-25.3-10.4-38.9c5.3-9.1,14.8-14.2,24.7-14.2c4.8,0,9.7,1.2,14.2,3.8L540,408.7l157.9-91.2
		c4.5-2.6,9.4-3.8,14.2-3.8c9.8,0,19.4,5.1,24.7,14.2C744.7,341.6,740,359,726.4,366.9z"/>
	
		<linearGradient id="SVGID_00000099641869867863774040000005546371631932591504_" gradientUnits="userSpaceOnUse" x1="581.4548" y1="510.6381" x2="292.7547" y2="684.687">
		<stop  offset="0" style="stop-color:#1205FC"/>
		<stop  offset="0.1555" style="stop-color:#0E41FD"/>
		<stop  offset="0.3218" style="stop-color:#0A7AFD"/>
		<stop  offset="0.4832" style="stop-color:#06AAFE"/>
		<stop  offset="0.6356" style="stop-color:#03CFFE"/>
		<stop  offset="0.7767" style="stop-color:#02E9FF"/>
		<stop  offset="0.9024" style="stop-color:#00F9FF"/>
		<stop  offset="1" style="stop-color:#00FFFF"/>
	</linearGradient>
	<path style="fill:url(#SVGID_00000099641869867863774040000005546371631932591504_);" d="M483.3,572.8V788
		c0,15.7-12.8,28.5-28.5,28.5c-7.9,0-15-3.2-20.1-8.3c-5.2-5.1-8.3-12.3-8.3-20.1V605.6l-157.9-91.2c-9.1-5.3-14.2-14.8-14.2-24.7
		c0-4.8,1.2-9.7,3.8-14.2c7.9-13.6,25.3-18.3,38.9-10.4L483.3,572.8z"/>
	
		<linearGradient id="SVGID_00000140010850345803150070000004732998577617257135_" gradientUnits="userSpaceOnUse" x1="495.9771" y1="512.427" x2="795.7094" y2="688.478">
		<stop  offset="0" style="stop-color:#1205FC"/>
		<stop  offset="0.1555" style="stop-color:#0E41FD"/>
		<stop  offset="0.3218" style="stop-color:#0A7AFD"/>
		<stop  offset="0.4832" style="stop-color:#06AAFE"/>
		<stop  offset="0.6356" style="stop-color:#03CFFE"/>
		<stop  offset="0.7767" style="stop-color:#02E9FF"/>
		<stop  offset="0.9024" style="stop-color:#00F9FF"/>
		<stop  offset="1" style="stop-color:#00FFFF"/>
	</linearGradient>
	<path style="fill:url(#SVGID_00000140010850345803150070000004732998577617257135_);" d="M825.9,489.8c0,9.8-5.1,19.4-14.2,24.7
		l-157.9,91.2V788c0,7.9-3.2,15-8.3,20.1c-5.2,5.2-12.3,8.3-20.1,8.3c-15.7,0-28.5-12.8-28.5-28.5V572.8l186.4-107.6
		c13.6-7.9,31-3.2,38.9,10.4C824.6,480.1,825.9,484.9,825.9,489.8z"/>
	<g>
		
			<linearGradient id="SVGID_00000073721109383532996090000016727063876777803697_" gradientUnits="userSpaceOnUse" x1="689.0147" y1="626.0033" x2="791.2156" y2="685.1397">
			<stop  offset="0" style="stop-color:#009AFF"/>
			<stop  offset="0.2156" style="stop-color:#00B6FF"/>
			<stop  offset="0.5587" style="stop-color:#00DEFF"/>
			<stop  offset="0.8323" style="stop-color:#00F6FF"/>
			<stop  offset="1" style="stop-color:#00FFFF"/>
		</linearGradient>
		<path style="fill:url(#SVGID_00000073721109383532996090000016727063876777803697_);" d="M680.8,692.5c-7.3-17.7-4.6-43,8.8-66.1
			c13.4-23.2,33.9-38.1,52.9-40.6c13.3,11.5,18.9,30.7,15.4,50.5c-9.2,1.1-18.2,6.8-23.5,16c-5.3,9.2-5.8,19.8-2.1,28.3
			C716.8,693.5,697.4,698.3,680.8,692.5z"/>
		
			<linearGradient id="SVGID_00000016761577979885094560000011188069173766792103_" gradientUnits="userSpaceOnUse" x1="689.046" y1="625.9491" x2="791.247" y2="685.0856">
			<stop  offset="0" style="stop-color:#009AFF"/>
			<stop  offset="0.2156" style="stop-color:#00B6FF"/>
			<stop  offset="0.5587" style="stop-color:#00DEFF"/>
			<stop  offset="0.8323" style="stop-color:#00F6FF"/>
			<stop  offset="1" style="stop-color:#00FFFF"/>
		</linearGradient>
		<circle style="fill:url(#SVGID_00000016761577979885094560000011188069173766792103_);" cx="768.2" cy="671.7" r="28.4"/>
	</g>
	<g>
		
			<linearGradient id="SVGID_00000044876954697888358160000007699872705006823337_" gradientUnits="userSpaceOnUse" x1="286.2937" y1="686.3065" x2="421.5986" y2="608.4722">
			<stop  offset="0" style="stop-color:#00FFFF"/>
			<stop  offset="0.1677" style="stop-color:#00F6FF"/>
			<stop  offset="0.4413" style="stop-color:#00DEFF"/>
			<stop  offset="0.7844" style="stop-color:#00B6FF"/>
			<stop  offset="1" style="stop-color:#009AFF"/>
		</linearGradient>
		<path style="fill:url(#SVGID_00000044876954697888358160000007699872705006823337_);" d="M337.5,585.7c19,2.5,39.5,17.5,52.9,40.6
			s16,48.4,8.8,66.1c-16.6,5.8-36,1-51.4-11.9c3.6-8.6,3.2-19.1-2.1-28.3c-5.3-9.2-14.3-14.9-23.5-16
			C318.7,616.4,324.2,597.2,337.5,585.7z"/>
		
			<linearGradient id="SVGID_00000008860523665318187860000013429988029391378068_" gradientUnits="userSpaceOnUse" x1="286.345" y1="686.3956" x2="421.6499" y2="608.5613">
			<stop  offset="0" style="stop-color:#00FFFF"/>
			<stop  offset="0.1677" style="stop-color:#00F6FF"/>
			<stop  offset="0.4413" style="stop-color:#00DEFF"/>
			<stop  offset="0.7844" style="stop-color:#00B6FF"/>
			<stop  offset="1" style="stop-color:#009AFF"/>
		</linearGradient>
		<circle style="fill:url(#SVGID_00000008860523665318187860000013429988029391378068_);" cx="311.8" cy="671.7" r="28.4"/>
	</g>
	
		<linearGradient id="SVGID_00000077283609474685221490000003212239954944815261_" gradientUnits="userSpaceOnUse" x1="540.0024" y1="942.3498" x2="540.0024" y2="590.9021">
		<stop  offset="0" style="stop-color:#009AFF"/>
		<stop  offset="0.1856" style="stop-color:#10ADF0"/>
		<stop  offset="0.4999" style="stop-color:#27C7DC"/>
		<stop  offset="0.7813" style="stop-color:#34D7D0"/>
		<stop  offset="1" style="stop-color:#39DDCC"/>
	</linearGradient>
	<path style="fill:url(#SVGID_00000077283609474685221490000003212239954944815261_);" d="M540,590.9L540,590.9
		c-15.7,0-28.5,12.7-28.5,28.5l0,294.5c0,15.7,12.7,28.5,28.5,28.5h0c15.7,0,28.5-12.7,28.5-28.5l0-294.5
		C568.5,603.7,555.7,590.9,540,590.9z"/>
	
		<linearGradient id="SVGID_00000068675030756187545660000017482857552465278599_" gradientUnits="userSpaceOnUse" x1="163.3197" y1="758.7798" x2="328.9053" y2="661.8344">
		<stop  offset="0" style="stop-color:#009AFF"/>
		<stop  offset="1" style="stop-color:#00FFFF"/>
	</linearGradient>
	<polygon style="fill:url(#SVGID_00000068675030756187545660000017482857552465278599_);" points="380.1,817 220.2,724.6 
		220.2,420.9 220.2,420.9 163.2,388 163.2,757.5 483.3,942.3 483.3,876.5 	"/>
	
		<linearGradient id="SVGID_00000053517978196436911530000000750477652525647021_" gradientUnits="userSpaceOnUse" x1="911.915" y1="758.3744" x2="749.1157" y2="660.5547">
		<stop  offset="0" style="stop-color:#009AFF"/>
		<stop  offset="1" style="stop-color:#00FFFF"/>
	</linearGradient>
	<polygon style="fill:url(#SVGID_00000053517978196436911530000000750477652525647021_);" points="859.8,420.9 859.8,724.6 
		859.8,724.6 596.8,876.5 596.8,942.3 916.8,757.6 916.8,388 	"/>
	
		<linearGradient id="SVGID_00000125594400641233493620000009191655513949966238_" gradientUnits="userSpaceOnUse" x1="540.0051" y1="297.4217" x2="540.0051" y2="110.8511">
		<stop  offset="0" style="stop-color:#00FFFF"/>
		<stop  offset="1" style="stop-color:#2AA9E0"/>
	</linearGradient>
	<polygon style="fill:url(#SVGID_00000125594400641233493620000009191655513949966238_);" points="540,104.9 219.9,289.7 
		276.9,322.6 540,170.7 803.1,322.6 860.1,289.7 	"/>
	
		<linearGradient id="SVGID_00000150093343985799190410000007873394536970412708_" gradientUnits="userSpaceOnUse" x1="191.5573" y1="338.825" x2="495.9199" y2="514.5489">
		<stop  offset="0" style="stop-color:#009AFF"/>
		<stop  offset="0.1856" style="stop-color:#10ADF0"/>
		<stop  offset="0.4999" style="stop-color:#27C7DC"/>
		<stop  offset="0.7813" style="stop-color:#34D7D0"/>
		<stop  offset="1" style="stop-color:#39DDCC"/>
	</linearGradient>
	<path style="fill:url(#SVGID_00000150093343985799190410000007873394536970412708_);" d="M495.9,514.5L495.9,514.5
		c7.9-13.6,3.2-31-10.4-38.9l-255-147.2c-13.6-7.9-31-3.2-38.9,10.4l0,0c-7.9,13.6-3.2,31,10.4,38.9L457,525
		C470.6,532.8,488.1,528.2,495.9,514.5z"/>
	
		<linearGradient id="SVGID_00000052063811224579344250000011013483384903263664_" gradientUnits="userSpaceOnUse" x1="584.0848" y1="514.5485" x2="888.4474" y2="338.8247">
		<stop  offset="0" style="stop-color:#39DDCC"/>
		<stop  offset="0.2175" style="stop-color:#34D7D0"/>
		<stop  offset="0.4973" style="stop-color:#27C7DC"/>
		<stop  offset="0.8099" style="stop-color:#10ADF0"/>
		<stop  offset="0.9944" style="stop-color:#009AFF"/>
	</linearGradient>
	<path style="fill:url(#SVGID_00000052063811224579344250000011013483384903263664_);" d="M584.1,514.5L584.1,514.5
		c7.9,13.6,25.3,18.3,38.9,10.4l255-147.2c13.6-7.9,18.3-25.3,10.4-38.9v0c-7.9-13.6-25.3-18.3-38.9-10.4l-255,147.2
		C580.9,483.5,576.2,500.9,584.1,514.5z"/>
</g>
</svg>
